<svg xmlns="http://www.w3.org/2000/svg" width="57.318" height="57.318" viewBox="0 0 57.318 57.318"><defs><style>.a{fill:none;}.b{fill:#fff;}</style></defs><g transform="translate(0)"><path class="a" d="M0,0H57.318V57.318H0Z" transform="translate(0)"/><path class="b" d="M43.988,27.882V8.776A4.791,4.791,0,0,0,39.212,4H5.776A4.791,4.791,0,0,0,1,8.776V27.882a4.791,4.791,0,0,0,4.776,4.776H39.212A4.791,4.791,0,0,0,43.988,27.882ZM22.494,25.494a7.165,7.165,0,1,1,7.165-7.165A7.155,7.155,0,0,1,22.494,25.494ZM53.541,11.165V37.435a4.791,4.791,0,0,1-4.776,4.776H8.165V37.435h40.6V11.165Z" transform="translate(1.388 5.553)"/></g></svg>