<svg xmlns="http://www.w3.org/2000/svg" width="57.318" height="57.318" viewBox="0 0 57.318 57.318"><defs><style>.a{fill:none;}.b{fill:#fff;}</style></defs><g transform="translate(0)"><path class="a" d="M0,0H57.318V57.318H0Z" transform="translate(0)"/><path class="b" d="M53.541,26.521l-5.827-6.639.812-8.789L39.9,9.135,35.391,1.54l-8.12,3.487L19.151,1.54,14.637,9.135,6.015,11.069l.812,8.789L1,26.521,6.827,33.16l-.812,8.813,8.622,1.958,4.514,7.595,8.12-3.511,8.12,3.487L39.9,43.907l8.622-1.958-.812-8.789ZM29.659,38.462H24.882V33.686h4.776Zm0-9.553H24.882V14.58h4.776Z" transform="translate(1.388 2.138)"/></g></svg>