<svg xmlns="http://www.w3.org/2000/svg" width="79.619" height="79.619" viewBox="0 0 79.619 79.619"><defs><style>.a{fill:none;}.b{fill:#002d58;}</style></defs><path class="a" d="M0,0H79.619V79.619H0Z"/><path class="b" d="M54.776,25.176,40.246,3.413A3.293,3.293,0,0,0,37.492,2.02a3.242,3.242,0,0,0-2.753,1.427L20.208,25.176H4.317A3.327,3.327,0,0,0,1,28.493a2.794,2.794,0,0,0,.133.9L9.559,60.142a6.6,6.6,0,0,0,6.37,4.843H59.056a6.667,6.667,0,0,0,6.4-4.843l8.426-30.753.1-.9a3.327,3.327,0,0,0-3.317-3.317Zm-27.236,0,9.952-14.6,9.952,14.6Zm9.952,26.54a6.635,6.635,0,1,1,6.635-6.635A6.654,6.654,0,0,1,37.492,51.716Z" transform="translate(2.317 4.681)"/></svg>