<svg xmlns="http://www.w3.org/2000/svg" width="79.619" height="79.619" viewBox="0 0 79.619 79.619"><defs><style>.a{fill:none;}.b{fill:#002d58;}</style></defs><path class="a" d="M0,0H79.619V79.619H0Z"/><path class="b" d="M39.81,19.9a3.327,3.327,0,0,0-3.317-3.317H19.308L21.5,6.038l.066-.763a3.851,3.851,0,0,0-1.095-2.654L17.848,0,1.46,16.388A4.994,4.994,0,0,0,0,19.9V41.468a4.97,4.97,0,0,0,4.976,4.976H27.369a5.006,5.006,0,0,0,4.578-3.019l7.5-17.549a4.839,4.839,0,0,0,.365-1.825Zm34.833,13.27H52.25a5.006,5.006,0,0,0-4.578,3.019l-7.5,17.549a4.839,4.839,0,0,0-.365,1.825v4.147a3.327,3.327,0,0,0,3.317,3.317H60.311l-2.19,10.55-.066.8a3.851,3.851,0,0,0,1.095,2.654l2.621,2.588L78.159,63.231a4.994,4.994,0,0,0,1.46-3.517V38.151A4.97,4.97,0,0,0,74.643,33.175Z"/></svg>